<?xml version="1.0" encoding="UTF-8" standalone="no"?><!DOCTYPE svg PUBLIC "-//W3C//DTD SVG 1.1//EN" "http://www.w3.org/Graphics/SVG/1.1/DTD/svg11.dtd"><svg width="100%" height="100%" viewBox="0 0 255 221" version="1.1" xmlns="http://www.w3.org/2000/svg" xmlns:xlink="http://www.w3.org/1999/xlink" xml:space="preserve" xmlns:serif="http://www.serif.com/" style="fill-rule:evenodd;clip-rule:evenodd;stroke-linecap:round;stroke-linejoin:round;stroke-miterlimit:1.5;"><g id="_1-Wind" serif:id="1-Wind"><path id="Boat" d="M136.727,154.026c8.242,-8.375 14.484,-20.6 17.329,-35.185c13.91,6.695 21.781,16.84 24.286,28.83c-4.58,1.868 -12.512,3.439 -23.406,4.391l0.074,6.874c10.958,-1.23 19.617,-3.25 26.502,-5.88c-3.009,6.027 -8.991,13.654 -12.525,16.038c-23.69,1.568 -34.755,-1.387 -36.01,-7.981l22.033,-2.177l-0.074,-6.874c-6.799,0.814 -12.703,2.117 -18.209,1.964Z" style="fill:none;stroke:#fff;stroke-width:3.89px;"/><g id="Waves"><path id="Wave3" d="M52.085,196.242c7.079,0.037 16.895,-1.059 22.383,-3.209c5.433,1.726 11.704,2.8 18.926,3.134c6.405,-0.387 12.413,-1.87 17.028,-3.649c6.582,2.315 12.349,3.273 17.737,3.599c8.49,-0.338 14.19,-1.98 18.105,-3.51c4.746,1.889 10.992,2.978 18.72,3.277c7.754,-0.359 13.606,-1.701 17.779,-3.054c4.104,1.61 7.085,2.345 9.314,2.648c5.043,0.686 7.849,0.438 11.7,0.797" style="fill:none;stroke:#fff;stroke-width:5.42px;"/><path id="Wave2" d="M52.54,183.496c7.08,0.037 16.895,-1.059 22.383,-3.21c5.433,1.727 11.704,2.801 18.927,3.135c6.404,-0.387 12.413,-1.87 17.027,-3.649c6.582,2.315 12.349,3.273 17.738,3.599c8.489,-0.338 14.189,-1.98 18.104,-3.51c4.746,1.889 10.992,2.978 18.721,3.277c7.753,-0.359 13.605,-1.701 17.778,-3.054c4.105,1.61 7.086,2.345 9.314,2.648c5.043,0.686 7.85,0.438 11.7,0.797" style="fill:none;stroke:#fff;stroke-width:5.42px;"/><path id="Wave1" d="M51.857,170.75c7.08,0.037 16.895,-1.059 22.384,-3.21c5.432,1.727 11.703,2.801 18.926,3.135c6.405,-0.387 12.413,-1.87 17.027,-3.649c6.582,2.315 12.35,3.273 17.738,3.599c8.489,-0.338 14.189,-1.98 18.105,-3.51c4.745,1.889 10.991,2.978 18.72,3.276c7.753,-0.358 13.605,-1.7 17.778,-3.053c4.105,1.61 7.086,2.345 9.314,2.648c5.044,0.686 7.85,0.438 11.7,0.797" style="fill:none;stroke:#fff;stroke-width:5.42px;"/></g><path id="Whirlwind" d="M87.306,167.142l0,-57.429c2.813,-3.142 6.077,-5.534 9.845,-7.085l49.523,4.4c0.563,4.928 0.491,9.855 -0.06,14.783c0,0 -49.871,5.442 -49.985,5.728c-0.308,0.767 -9.831,-17.245 -9.323,-17.826c3.514,-3.522 6.808,-5.949 9.845,-7.085l-0.522,24.911l15.511,-1.805l0.164,-21.76l6.874,0.611l0,20.357l5.125,-0.575l0,-19.326l6.88,0.611l0,17.945" style="fill:none;stroke:#fff;stroke-width:3px;"/><path id="Border" d="M122.177,12.872c1.074,-1.848 3.05,-2.985 5.188,-2.985c2.137,0 4.114,1.137 5.188,2.985c20.109,34.606 92.797,159.696 112.994,194.453c1.079,1.856 1.083,4.147 0.013,6.007c-1.071,1.861 -3.054,3.008 -5.201,3.008c-40.306,0 -185.682,0 -225.989,0c-2.146,0 -4.129,-1.147 -5.2,-3.008c-1.071,-1.86 -1.066,-4.151 0.013,-6.007c20.197,-34.757 92.885,-159.847 112.994,-194.453Z" style="fill:none;stroke:#fff;stroke-width:7.89px;"/></g></svg>