<?xml version="1.0" encoding="UTF-8" standalone="no"?><!DOCTYPE svg PUBLIC "-//W3C//DTD SVG 1.1//EN" "http://www.w3.org/Graphics/SVG/1.1/DTD/svg11.dtd"><svg width="100%" height="100%" viewBox="0 0 255 221" version="1.1" xmlns="http://www.w3.org/2000/svg" xmlns:xlink="http://www.w3.org/1999/xlink" xml:space="preserve" xmlns:serif="http://www.serif.com/" style="fill-rule:evenodd;clip-rule:evenodd;stroke-linecap:round;stroke-linejoin:round;stroke-miterlimit:1.5;"><g id="_3-Bolt" serif:id="3-Bolt"><path id="Bolt" d="M119.241,152.29l-13.056,21.69l10.74,0l-9.792,19.373l27.512,-27.086l-12.593,0l11.04,-13.948l-13.851,-0.029Z" style="fill:none;stroke:#fff;stroke-width:3.44px;"/><path id="Cloud" d="M138.37,105.793c2.842,-4.878 7.937,-7.081 14,-8.135c7.912,-0.346 13.912,1.321 18,5c6.052,5.407 7.408,10.153 7.363,16.94c-0.074,10.92 -5.286,17.741 -15.363,22.06l-73,0c-9.56,-2.966 -14.502,-8.795 -14,-18c0.683,-12.514 6.156,-18.943 18.99,-19.536c2.725,-7.52 7.487,-14.585 14.841,-19.69c5.469,-2.812 10.297,-3.981 16.169,-3.774c9.76,0.382 16.488,3.742 20.208,8.151l6.792,8.849" style="fill:none;stroke:#fff;stroke-width:5.5px;"/><path id="Border" d="M122.177,12.872c1.074,-1.848 3.05,-2.985 5.188,-2.985c2.137,0 4.114,1.137 5.188,2.985c20.109,34.606 92.797,159.696 112.994,194.453c1.079,1.856 1.083,4.147 0.013,6.007c-1.071,1.861 -3.054,3.008 -5.201,3.008c-40.306,0 -185.682,0 -225.989,0c-2.146,0 -4.129,-1.147 -5.2,-3.008c-1.071,-1.86 -1.066,-4.151 0.013,-6.007c20.197,-34.757 92.885,-159.847 112.994,-194.453Z" style="fill:none;stroke:#fff;stroke-width:7.89px;"/></g></svg>