<?xml version="1.0" encoding="UTF-8" standalone="no"?><!DOCTYPE svg PUBLIC "-//W3C//DTD SVG 1.1//EN" "http://www.w3.org/Graphics/SVG/1.1/DTD/svg11.dtd"><svg width="100%" height="100%" viewBox="0 0 255 221" version="1.1" xmlns="http://www.w3.org/2000/svg" xmlns:xlink="http://www.w3.org/1999/xlink" xml:space="preserve" xmlns:serif="http://www.serif.com/" style="fill-rule:evenodd;clip-rule:evenodd;stroke-linecap:round;stroke-linejoin:round;stroke-miterlimit:1.5;"><path id="_5-Snowy" serif:id="5-Snowy" d="M122.177,12.872c1.074,-1.848 3.05,-2.985 5.188,-2.985c2.137,0 4.114,1.137 5.188,2.985c20.109,34.606 92.797,159.696 112.994,194.453c1.079,1.856 1.083,4.147 0.013,6.007c-1.071,1.861 -3.054,3.008 -5.201,3.008c-40.306,0 -185.682,0 -225.989,0c-2.146,0 -4.129,-1.147 -5.2,-3.008c-1.071,-1.86 -1.066,-4.151 0.013,-6.007c20.197,-34.757 92.885,-159.847 112.994,-194.453Z" style="fill:none;stroke:#fff;stroke-width:7.89px;"/><clipPath id="_clip1"><path d="M122.177,12.872c1.074,-1.848 3.05,-2.985 5.188,-2.985c2.137,0 4.114,1.137 5.188,2.985c20.109,34.606 92.797,159.696 112.994,194.453c1.079,1.856 1.083,4.147 0.013,6.007c-1.071,1.861 -3.054,3.008 -5.201,3.008c-40.306,0 -185.682,0 -225.989,0c-2.146,0 -4.129,-1.147 -5.2,-3.008c-1.071,-1.86 -1.066,-4.151 0.013,-6.007c20.197,-34.757 92.885,-159.847 112.994,-194.453Z"/></clipPath><g clip-path="url(#_clip1)"><g id="Snowflake"><ellipse cx="128.151" cy="109.316" rx="5.338" ry="5.345" style="fill:none;stroke:#fff;stroke-width:3.44px;"/><path d="M134.97,109.316l28.628,0l-12.399,0l7.076,-11.368l-7.076,11.368l7.341,11.886" style="fill:none;stroke:#fff;stroke-width:3px;"/><path d="M134.97,109.316l28.628,0l-12.399,0l7.076,-11.368l-7.076,11.368l7.341,11.886" style="fill-opacity:0;"/><path d="M131.554,115.233l14.286,24.845l-6.187,-10.76l13.367,0.467l-13.367,-0.467l-6.623,12.302" style="fill:none;stroke:#fff;stroke-width:3px;"/><path d="M131.554,115.233l14.286,24.845l-6.187,-10.76l13.367,0.467l-13.367,-0.467l-6.623,12.302" style="fill-opacity:0;"/><path d="M124.713,115.213l-14.43,24.761l6.25,-10.724l6.237,11.849l-6.237,-11.849l-13.952,0.357" style="fill:none;stroke:#fff;stroke-width:3px;"/><path d="M124.713,115.213l-14.43,24.761l6.25,-10.724l6.237,11.849l-6.237,-11.849l-13.952,0.357" style="fill-opacity:0;"/><path d="M121.332,109.276l-28.628,-0.166l12.399,0.072l-7.141,11.326l7.141,-11.326l-7.273,-11.929" style="fill:none;stroke:#fff;stroke-width:3px;"/><path d="M121.332,109.276l-28.628,-0.166l12.399,0.072l-7.141,11.326l7.141,-11.326l-7.273,-11.929" style="fill-opacity:0;"/><path d="M124.765,103.388l-14.217,-24.884l6.157,10.777l-13.366,-0.505l13.366,0.505l6.658,-12.284" style="fill:none;stroke:#fff;stroke-width:3px;"/><path d="M124.765,103.388l-14.217,-24.884l6.157,10.777l-13.366,-0.505l13.366,0.505l6.658,-12.284" style="fill-opacity:0;"/><path d="M131.501,103.368l14.067,-24.97l-6.092,10.815l-6.41,-11.757l6.41,11.757l13.945,-0.563" style="fill:none;stroke:#fff;stroke-width:3px;"/><path d="M131.501,103.368l14.067,-24.97l-6.092,10.815l-6.41,-11.757l6.41,11.757l13.945,-0.563" style="fill-opacity:0;"/></g><g id="Traces"><g id="Trace2"><path d="M163.23,201.583c8.747,-5.909 14.913,-10.805 16.318,-14.934c0.502,-5.856 -35.259,-12.725 -45.369,-22.026c-2.42,-4.42 -1.268,-8.244 3.805,-11.415l9.156,0.146c-5.4,1.34 -7.732,3.644 -6.888,6.732c1.023,3.489 4.982,5.274 9.879,6.513c30.126,7.306 60.336,14.617 62.2,20.343c0.754,6.416 -2.389,8.762 -6.879,14.641l-42.222,0Z" style="fill:none;stroke:#fff;stroke-width:1px;stroke-miterlimit:1;"/><path d="M163.23,201.583c8.747,-5.909 14.913,-10.805 16.318,-14.934c0.502,-5.856 -35.259,-12.725 -45.369,-22.026c-2.42,-4.42 -1.268,-8.244 3.805,-11.415l9.156,0.146c-5.4,1.34 -7.732,3.644 -6.888,6.732c1.023,3.489 4.982,5.274 9.879,6.513c30.126,7.306 60.336,14.617 62.2,20.343c0.754,6.416 -2.389,8.762 -6.879,14.641l-42.222,0Z" style="fill:#fff;"/></g><g id="Trace1"><path d="M37.848,201.29l59.859,0.293c18.738,-7.806 26.892,-14.723 26.409,-22.554c0.146,-9.207 -15.085,-7.935 -17.137,-16.182c-0.129,-3.918 6.046,-6.844 16.845,-10.177l-9.582,-0.193c-10.487,2.867 -16.758,5.987 -17.489,9.44c0.805,7.433 12.356,9.61 13.611,17.562c-1.175,6.15 -38.592,15.205 -72.516,21.811Z" style="fill:none;stroke:#fff;stroke-width:1px;stroke-miterlimit:1;"/><path d="M37.848,201.29l59.859,0.293c18.738,-7.806 26.892,-14.723 26.409,-22.554c0.146,-9.207 -15.085,-7.935 -17.137,-16.182c-0.129,-3.918 6.046,-6.844 16.845,-10.177l-9.582,-0.193c-10.487,2.867 -16.758,5.987 -17.489,9.44c0.805,7.433 12.356,9.61 13.611,17.562c-1.175,6.15 -38.592,15.205 -72.516,21.811Z" style="fill:#fff;"/></g></g></g></svg>