<?xml version="1.0" encoding="UTF-8" standalone="no"?><!DOCTYPE svg PUBLIC "-//W3C//DTD SVG 1.1//EN" "http://www.w3.org/Graphics/SVG/1.1/DTD/svg11.dtd"><svg width="100%" height="100%" viewBox="0 0 255 221" version="1.1" xmlns="http://www.w3.org/2000/svg" xmlns:xlink="http://www.w3.org/1999/xlink" xml:space="preserve" xmlns:serif="http://www.serif.com/" style="fill-rule:evenodd;clip-rule:evenodd;stroke-linecap:round;stroke-linejoin:round;stroke-miterlimit:1.5;"><path id="_7-Foggy" serif:id="7-Foggy" d="M122.177,12.872c1.074,-1.848 3.05,-2.985 5.188,-2.985c2.137,0 4.114,1.137 5.188,2.985c20.109,34.606 92.797,159.696 112.994,194.453c1.079,1.856 1.083,4.147 0.013,6.007c-1.071,1.861 -3.054,3.008 -5.201,3.008c-40.306,0 -185.682,0 -225.989,0c-2.146,0 -4.129,-1.147 -5.2,-3.008c-1.071,-1.86 -1.066,-4.151 0.013,-6.007c20.197,-34.757 92.885,-159.847 112.994,-194.453Z" style="fill:none;stroke:#fff;stroke-width:7.89px;"/><clipPath id="_clip1"><path d="M122.177,12.872c1.074,-1.848 3.05,-2.985 5.188,-2.985c2.137,0 4.114,1.137 5.188,2.985c20.109,34.606 92.797,159.696 112.994,194.453c1.079,1.856 1.083,4.147 0.013,6.007c-1.071,1.861 -3.054,3.008 -5.201,3.008c-40.306,0 -185.682,0 -225.989,0c-2.146,0 -4.129,-1.147 -5.2,-3.008c-1.071,-1.86 -1.066,-4.151 0.013,-6.007c20.197,-34.757 92.885,-159.847 112.994,-194.453Z"/></clipPath><g clip-path="url(#_clip1)"><g id="Fog"><path d="M99.65,117.094l51.32,0" style="fill:none;stroke:#fff;stroke-width:4.78px;stroke-miterlimit:1;"/><path d="M77.67,128.085l86.788,0" style="fill:none;stroke:#fff;stroke-width:4.78px;stroke-miterlimit:1;"/><path d="M77.67,139.174l73.3,0" style="fill:none;stroke:#fff;stroke-width:4.78px;stroke-miterlimit:1;"/><path d="M101.548,149.465l75.499,0" style="fill:none;stroke:#fff;stroke-width:4.78px;stroke-miterlimit:1;"/><path d="M86.162,160.155l86.788,0" style="fill:none;stroke:#fff;stroke-width:4.78px;stroke-miterlimit:1;"/><path d="M77.67,170.846l86.788,0" style="fill:none;stroke:#fff;stroke-width:4.78px;stroke-miterlimit:1;"/><path d="M107.523,181.476l69.524,0" style="fill:none;stroke:#fff;stroke-width:4.78px;stroke-miterlimit:1;"/><path d="M101.548,191.867l69.524,0" style="fill:none;stroke:#fff;stroke-width:4.78px;stroke-miterlimit:1;"/></g></g></svg>