<?xml version="1.0" encoding="UTF-8" standalone="no"?><!DOCTYPE svg PUBLIC "-//W3C//DTD SVG 1.1//EN" "http://www.w3.org/Graphics/SVG/1.1/DTD/svg11.dtd"><svg width="100%" height="100%" viewBox="0 0 255 221" version="1.1" xmlns="http://www.w3.org/2000/svg" xmlns:xlink="http://www.w3.org/1999/xlink" xml:space="preserve" xmlns:serif="http://www.serif.com/" style="fill-rule:evenodd;clip-rule:evenodd;stroke-linecap:round;stroke-linejoin:round;stroke-miterlimit:1.5;"><path id="_9-Rainy" serif:id="9-Rainy" d="M122.177,12.872c1.074,-1.848 3.05,-2.985 5.188,-2.985c2.137,0 4.114,1.137 5.188,2.985c20.109,34.606 92.797,159.696 112.994,194.453c1.079,1.856 1.083,4.147 0.013,6.007c-1.071,1.861 -3.054,3.008 -5.201,3.008c-40.306,0 -185.682,0 -225.989,0c-2.146,0 -4.129,-1.147 -5.2,-3.008c-1.071,-1.86 -1.066,-4.151 0.013,-6.007c20.197,-34.757 92.885,-159.847 112.994,-194.453Z" style="fill:none;stroke:#fff;stroke-width:7.89px;"/><clipPath id="_clip1"><path d="M122.177,12.872c1.074,-1.848 3.05,-2.985 5.188,-2.985c2.137,0 4.114,1.137 5.188,2.985c20.109,34.606 92.797,159.696 112.994,194.453c1.079,1.856 1.083,4.147 0.013,6.007c-1.071,1.861 -3.054,3.008 -5.201,3.008c-40.306,0 -185.682,0 -225.989,0c-2.146,0 -4.129,-1.147 -5.2,-3.008c-1.071,-1.86 -1.066,-4.151 0.013,-6.007c20.197,-34.757 92.885,-159.847 112.994,-194.453Z"/></clipPath><g clip-path="url(#_clip1)"><g id="Drops"><g id="Drop"><path d="M115.369,95.134c-8.833,5.346 -18.864,12.355 -26.165,19.656c-4.73,4.731 -3.613,18.268 4.078,23.395c10.455,5.392 25.457,-2.726 25.457,-8.111c0.419,-11.989 -0.296,-23.505 -3.37,-34.94Z" style="fill:none;stroke:#fff;stroke-width:5.22px;stroke-miterlimit:1;"/><path d="M106.791,132.862c2.659,-1.481 4.199,-3.076 5.495,-5.239c0.29,-6.284 0.476,-8.815 -0.256,-10.67" style="fill:none;stroke:#fff;stroke-width:5.22px;stroke-miterlimit:1;"/><ellipse cx="111.16" cy="111.013" rx="2.727" ry="2.377" style="fill:#fff;"/></g><g id="Drop1" serif:id="Drop"><path d="M172.445,117.708c-8.833,5.347 -18.864,12.355 -26.165,19.657c-4.73,4.73 -3.613,18.267 4.078,23.394c10.455,5.392 25.456,-2.726 25.456,-8.111c0.419,-11.989 -0.295,-23.505 -3.369,-34.94Z" style="fill:none;stroke:#fff;stroke-width:5.22px;stroke-miterlimit:1;"/><path d="M163.867,155.436c2.659,-1.481 4.198,-3.075 5.495,-5.239c0.29,-6.284 0.476,-8.815 -0.256,-10.669" style="fill:none;stroke:#fff;stroke-width:5.22px;stroke-miterlimit:1;"/><ellipse cx="168.236" cy="133.587" rx="2.727" ry="2.377" style="fill:#fff;"/></g><g id="Drop2" serif:id="Drop"><path d="M125.66,151.333c-8.834,5.347 -18.865,12.356 -26.166,19.657c-4.73,4.73 -3.613,18.267 4.078,23.395c10.455,5.391 25.457,-2.727 25.457,-8.111c0.419,-11.99 -0.296,-23.505 -3.369,-34.941Z" style="fill:none;stroke:#fff;stroke-width:5.22px;stroke-miterlimit:1;"/><path d="M117.081,189.062c2.66,-1.482 4.199,-3.076 5.495,-5.239c0.29,-6.285 0.476,-8.816 -0.256,-10.67" style="fill:none;stroke:#fff;stroke-width:5.22px;stroke-miterlimit:1;"/><ellipse cx="121.45" cy="167.212" rx="2.727" ry="2.377" style="fill:#fff;"/></g></g></g></svg>