<?xml version="1.0" encoding="UTF-8" standalone="no"?><!DOCTYPE svg PUBLIC "-//W3C//DTD SVG 1.1//EN" "http://www.w3.org/Graphics/SVG/1.1/DTD/svg11.dtd"><svg width="100%" height="100%" viewBox="0 0 255 221" version="1.1" xmlns="http://www.w3.org/2000/svg" xmlns:xlink="http://www.w3.org/1999/xlink" xml:space="preserve" xmlns:serif="http://www.serif.com/" style="fill-rule:evenodd;clip-rule:evenodd;stroke-linecap:round;stroke-linejoin:round;stroke-miterlimit:1.5;"><path id="_10-HeavySnow" serif:id="10-HeavySnow" d="M122.177,12.872c1.074,-1.848 3.05,-2.985 5.188,-2.985c2.137,0 4.114,1.137 5.188,2.985c20.109,34.606 92.797,159.696 112.994,194.453c1.079,1.856 1.083,4.147 0.013,6.007c-1.071,1.861 -3.054,3.008 -5.201,3.008c-40.306,0 -185.682,0 -225.989,0c-2.146,0 -4.129,-1.147 -5.2,-3.008c-1.071,-1.86 -1.066,-4.151 0.013,-6.007c20.197,-34.757 92.885,-159.847 112.994,-194.453Z" style="fill:none;stroke:#fff;stroke-width:7.89px;"/><clipPath id="_clip1"><path d="M122.177,12.872c1.074,-1.848 3.05,-2.985 5.188,-2.985c2.137,0 4.114,1.137 5.188,2.985c20.109,34.606 92.797,159.696 112.994,194.453c1.079,1.856 1.083,4.147 0.013,6.007c-1.071,1.861 -3.054,3.008 -5.201,3.008c-40.306,0 -185.682,0 -225.989,0c-2.146,0 -4.129,-1.147 -5.2,-3.008c-1.071,-1.86 -1.066,-4.151 0.013,-6.007c20.197,-34.757 92.885,-159.847 112.994,-194.453Z"/></clipPath><g clip-path="url(#_clip1)"><g id="Snowflake2"><path d="M88.015,162.533l-9.335,-5.849l-10.181,5.293l10.181,-5.293l-0.13,-11.078l0.13,11.078l-8.441,-4.987l-1.918,-8.888l1.918,8.888l-9.207,3.197l9.207,-3.197l-7.865,-4.348" style="fill:none;stroke:#fff;stroke-width:3.44px;stroke-miterlimit:1;"/><path d="M88.015,162.533l0.264,-11.013l-9.749,-6.053l9.749,6.053l9.459,-5.767l-9.459,5.767l-0.02,-9.804l6.663,-6.187l-6.663,6.187l-7.45,-6.285l7.45,6.285l-0.277,-8.982" style="fill:none;stroke:#fff;stroke-width:3.44px;stroke-miterlimit:1;"/><path d="M88.015,162.533l9.628,-5.355l0.276,-11.471l-0.276,11.471l9.765,5.232l-9.765,-5.232l8.441,-4.986l8.71,2.608l-8.71,-2.608l1.642,-9.608l-1.642,9.608l7.603,-4.791" style="fill:none;stroke:#fff;stroke-width:3.44px;stroke-miterlimit:1;"/><path d="M88.015,162.533l9.479,5.614l10.046,-5.546l-10.046,5.546l0.407,11.071l-0.407,-11.071l8.563,4.775l2.14,8.837l-2.14,-8.837l9.125,-3.427l-9.125,3.427l7.971,4.15" style="fill:none;stroke:#fff;stroke-width:3.44px;stroke-miterlimit:1;"/><path d="M88.015,162.533l-0.408,11.009l9.668,6.181l-9.668,-6.181l-9.535,5.642l9.535,-5.642l-0.109,9.804l-6.744,6.098l6.744,-6.098l7.367,6.382l-7.367,-6.382l0.158,8.985" style="fill:none;stroke:#fff;stroke-width:3.44px;stroke-miterlimit:1;"/><path d="M88.015,162.533l-9.777,5.078l-0.604,11.458l0.604,-11.458l-9.612,-5.509l9.612,5.509l-8.58,4.743l-8.632,-2.856l8.632,2.856l-1.916,9.556l1.916,-9.556l-7.737,4.571" style="fill:none;stroke:#fff;stroke-width:3.44px;stroke-miterlimit:1;"/></g><g id="Snowflake21" serif:id="Snowflake2"><path d="M127.276,106.334l-9.335,-5.849l-10.181,5.293l10.181,-5.293l-0.13,-11.078l0.13,11.078l-8.441,-4.987l-1.918,-8.888l1.918,8.888l-9.207,3.197l9.207,-3.197l-7.864,-4.348" style="fill:none;stroke:#fff;stroke-width:3.44px;stroke-miterlimit:1;"/><path d="M127.276,106.334l0.264,-11.013l-9.748,-6.052l9.748,6.052l9.46,-5.767l-9.46,5.767l-0.02,-9.804l6.663,-6.187l-6.663,6.187l-7.45,-6.285l7.45,6.285l-0.276,-8.982" style="fill:none;stroke:#fff;stroke-width:3.44px;stroke-miterlimit:1;"/><path d="M127.276,106.334l9.628,-5.355l0.276,-11.471l-0.276,11.471l9.766,5.232l-9.766,-5.232l8.441,-4.986l8.71,2.608l-8.71,-2.608l1.642,-9.608l-1.642,9.608l7.603,-4.791" style="fill:none;stroke:#fff;stroke-width:3.44px;stroke-miterlimit:1;"/><path d="M127.276,106.334l9.479,5.614l10.046,-5.546l-10.046,5.546l0.407,11.071l-0.407,-11.071l8.563,4.775l2.14,8.837l-2.14,-8.837l9.125,-3.427l-9.125,3.427l7.971,4.15" style="fill:none;stroke:#fff;stroke-width:3.44px;stroke-miterlimit:1;"/><path d="M127.276,106.334l-0.408,11.009l9.668,6.181l-9.668,-6.181l-9.535,5.642l9.535,-5.642l-0.109,9.804l-6.744,6.098l6.744,-6.098l7.367,6.382l-7.367,-6.382l0.158,8.985" style="fill:none;stroke:#fff;stroke-width:3.44px;stroke-miterlimit:1;"/><path d="M127.276,106.334l-9.777,5.078l-0.604,11.458l0.604,-11.458l-9.611,-5.509l9.611,5.509l-8.58,4.743l-8.632,-2.856l8.632,2.856l-1.916,9.556l1.916,-9.556l-7.737,4.571" style="fill:none;stroke:#fff;stroke-width:3.44px;stroke-miterlimit:1;"/></g><g id="Snowflake22" serif:id="Snowflake2"><path d="M163.962,160.582l-9.336,-5.849l-10.181,5.293l10.181,-5.293l-0.129,-11.078l0.129,11.078l-8.44,-4.988l-1.918,-8.888l1.918,8.888l-9.208,3.197l9.208,-3.197l-7.865,-4.348" style="fill:none;stroke:#fff;stroke-width:3.44px;stroke-miterlimit:1;"/><path d="M163.962,160.582l0.264,-11.013l-9.749,-6.053l9.749,6.053l9.459,-5.767l-9.459,5.767l-0.021,-9.804l6.663,-6.187l-6.663,6.187l-7.449,-6.285l7.449,6.285l-0.276,-8.983" style="fill:none;stroke:#fff;stroke-width:3.44px;stroke-miterlimit:1;"/><path d="M163.962,160.582l9.627,-5.355l0.276,-11.471l-0.276,11.471l9.766,5.231l-9.766,-5.231l8.441,-4.987l8.711,2.608l-8.711,-2.608l1.642,-9.607l-1.642,9.607l7.603,-4.791" style="fill:none;stroke:#fff;stroke-width:3.44px;stroke-miterlimit:1;"/><path d="M163.962,160.582l9.479,5.614l10.045,-5.546l-10.045,5.546l0.406,11.071l-0.406,-11.071l8.562,4.774l2.14,8.838l-2.14,-8.838l9.125,-3.426l-9.125,3.426l7.972,4.15" style="fill:none;stroke:#fff;stroke-width:3.44px;stroke-miterlimit:1;"/><path d="M163.962,160.582l-0.409,11.009l9.668,6.18l-9.668,-6.18l-9.534,5.642l9.534,-5.642l-0.108,9.803l-6.744,6.099l6.744,-6.099l7.366,6.383l-7.366,-6.383l0.158,8.986" style="fill:none;stroke:#fff;stroke-width:3.44px;stroke-miterlimit:1;"/><path d="M163.962,160.582l-9.777,5.077l-0.604,11.459l0.604,-11.459l-9.612,-5.508l9.612,5.508l-8.58,4.743l-8.632,-2.856l8.632,2.856l-1.916,9.557l1.916,-9.557l-7.737,4.572" style="fill:none;stroke:#fff;stroke-width:3.44px;stroke-miterlimit:1;"/></g></g></svg>