<?xml version="1.0" encoding="UTF-8" standalone="no"?><!DOCTYPE svg PUBLIC "-//W3C//DTD SVG 1.1//EN" "http://www.w3.org/Graphics/SVG/1.1/DTD/svg11.dtd"><svg width="100%" height="100%" viewBox="0 0 255 221" version="1.1" xmlns="http://www.w3.org/2000/svg" xmlns:xlink="http://www.w3.org/1999/xlink" xml:space="preserve" xmlns:serif="http://www.serif.com/" style="fill-rule:evenodd;clip-rule:evenodd;stroke-linecap:round;stroke-linejoin:round;stroke-miterlimit:1.5;"><path id="_11-Stormy" serif:id="11-Stormy" d="M122.177,12.872c1.074,-1.848 3.05,-2.985 5.188,-2.985c2.137,0 4.114,1.137 5.188,2.985c20.109,34.606 92.797,159.696 112.994,194.453c1.079,1.856 1.083,4.147 0.013,6.007c-1.071,1.861 -3.054,3.008 -5.201,3.008c-40.306,0 -185.682,0 -225.989,0c-2.146,0 -4.129,-1.147 -5.2,-3.008c-1.071,-1.86 -1.066,-4.151 0.013,-6.007c20.197,-34.757 92.885,-159.847 112.994,-194.453Z" style="fill:none;stroke:#fff;stroke-width:7.89px;"/><clipPath id="_clip1"><path d="M122.177,12.872c1.074,-1.848 3.05,-2.985 5.188,-2.985c2.137,0 4.114,1.137 5.188,2.985c20.109,34.606 92.797,159.696 112.994,194.453c1.079,1.856 1.083,4.147 0.013,6.007c-1.071,1.861 -3.054,3.008 -5.201,3.008c-40.306,0 -185.682,0 -225.989,0c-2.146,0 -4.129,-1.147 -5.2,-3.008c-1.071,-1.86 -1.066,-4.151 0.013,-6.007c20.197,-34.757 92.885,-159.847 112.994,-194.453Z"/></clipPath><g clip-path="url(#_clip1)"><path id="Whirlwind" d="M90.758,164.724l0,-57.429c2.813,-3.142 6.077,-5.533 9.845,-7.085l49.523,4.4c0.563,4.928 0.491,9.855 -0.06,14.783c0,0 -49.871,5.442 -49.985,5.728c-0.308,0.767 -9.831,-17.245 -9.323,-17.826c3.514,-3.522 6.808,-5.949 9.845,-7.085l-0.522,24.911l15.511,-1.805l0.164,-21.76l6.874,0.611l0,20.357l5.125,-0.575l0,-19.326l6.88,0.611l0,17.945" style="fill:none;stroke:#fff;stroke-width:3px;"/><g id="Waves"><path id="Wave3" d="M56.25,192.42c6.628,0.035 15.817,-1.004 20.956,-3.043c5.086,1.637 10.957,2.655 17.719,2.972c5.996,-0.367 11.621,-1.773 15.941,-3.46c6.162,2.195 11.562,3.103 16.606,3.412c7.949,-0.32 13.285,-1.877 16.951,-3.328c4.442,1.791 10.29,2.824 17.526,3.107c7.259,-0.34 12.737,-1.612 16.644,-2.895c3.843,1.526 6.634,2.223 8.72,2.51c4.722,0.651 7.349,0.415 10.954,0.756" style="fill:none;stroke:#fff;stroke-width:5.42px;"/><path id="Wave2" d="M56.676,180.337c6.628,0.035 15.817,-1.004 20.956,-3.042c5.086,1.636 10.957,2.654 17.719,2.971c5.996,-0.367 11.621,-1.772 15.941,-3.46c6.162,2.195 11.562,3.103 16.607,3.412c7.948,-0.32 13.284,-1.876 16.95,-3.327c4.443,1.791 10.29,2.823 17.526,3.106c7.259,-0.339 12.737,-1.612 16.645,-2.894c3.842,1.526 6.633,2.222 8.719,2.51c4.722,0.65 7.349,0.415 10.954,0.755" style="fill:none;stroke:#fff;stroke-width:5.42px;"/><path id="Wave1" d="M56.037,168.254c6.628,0.036 15.817,-1.003 20.956,-3.042c5.086,1.637 10.957,2.655 17.719,2.972c5.996,-0.367 11.621,-1.773 15.941,-3.46c6.162,2.195 11.562,3.103 16.606,3.412c7.949,-0.32 13.285,-1.877 16.951,-3.328c4.442,1.791 10.29,2.824 17.526,3.107c7.259,-0.34 12.737,-1.612 16.644,-2.895c3.843,1.526 6.634,2.223 8.72,2.51c4.722,0.651 7.349,0.415 10.954,0.756" style="fill:none;stroke:#fff;stroke-width:5.42px;"/></g><path id="ShipBody" d="M164.168,156.244l-0.176,-12.877l-18.994,8.331c0.998,5.202 3.656,9.45 6.28,13.276c4.328,1.295 8.705,2.049 13.124,2.343c4.914,-0.506 8.87,-1.37 11.6,-2.695c3.923,-4.971 6.467,-10.667 8.658,-16.549l-7.033,-3.032l0.191,-12.525l-4.628,0l0,-6.152l-18.748,0l0,5.976l-4.628,0l0,12.397l-5.813,2.47l0.997,4.491l-0.997,-4.491l5.813,-2.47l14.119,-5.718l0.059,4.348l19.041,8.841l1.627,-4.135l-7.033,-3.032l-13.694,-6.022" style="fill:none;stroke:#fff;stroke-width:3px;"/><path d="M164.168,156.244l-0.176,-12.877l-18.994,8.331c0.998,5.202 3.656,9.45 6.28,13.276c4.328,1.295 8.705,2.049 13.124,2.343c4.914,-0.506 8.87,-1.37 11.6,-2.695c3.923,-4.971 6.467,-10.667 8.658,-16.549l-7.033,-3.032l0.191,-12.525l-4.628,0l0,-6.152l-18.748,0l0,5.976l-4.628,0l0,12.397l-5.813,2.47l0.997,4.491l-0.997,-4.491l5.813,-2.47l14.119,-5.718l0.059,4.348l19.041,8.841l1.627,-4.135l-7.033,-3.032l-13.694,-6.022" style="fill:none;"/><clipPath id="_clip2"><path d="M164.168,156.244l-0.176,-12.877l-18.994,8.331c0.998,5.202 3.656,9.45 6.28,13.276c4.328,1.295 8.705,2.049 13.124,2.343c4.914,-0.506 8.87,-1.37 11.6,-2.695c3.923,-4.971 6.467,-10.667 8.658,-16.549l-7.033,-3.032l0.191,-12.525l-4.628,0l0,-6.152l-18.748,0l0,5.976l-4.628,0l0,12.397l-5.813,2.47l0.997,4.491l-0.997,-4.491l5.813,-2.47l14.119,-5.718l0.059,4.348l19.041,8.841l1.627,-4.135l-7.033,-3.032l-13.694,-6.022"/></clipPath><g clip-path="url(#_clip2)"><path id="Shippart" d="M153.713,139.662l0,-3.686l20.58,0l0,3.925" style="fill:none;stroke:#fff;stroke-width:2px;"/><g id="Lights"><path d="M157.9,129.101l0,1.241" style="fill:none;stroke:#fff;stroke-width:2px;"/><path d="M160.958,129.101l0,1.241" style="fill:none;stroke:#fff;stroke-width:2px;"/><path d="M164.003,129.101l0,1.241" style="fill:none;stroke:#fff;stroke-width:2px;"/><path d="M167.057,129.101l0,1.241" style="fill:none;stroke:#fff;stroke-width:2px;"/><path d="M170.01,129.101l0,1.241" style="fill:none;stroke:#fff;stroke-width:2px;"/></g></g></g></svg>