<?xml version="1.0" encoding="UTF-8" standalone="no"?><!DOCTYPE svg PUBLIC "-//W3C//DTD SVG 1.1//EN" "http://www.w3.org/Graphics/SVG/1.1/DTD/svg11.dtd"><svg width="100%" height="100%" viewBox="0 0 255 221" version="1.1" xmlns="http://www.w3.org/2000/svg" xmlns:xlink="http://www.w3.org/1999/xlink" xml:space="preserve" xmlns:serif="http://www.serif.com/" style="fill-rule:evenodd;clip-rule:evenodd;stroke-linecap:round;stroke-linejoin:round;stroke-miterlimit:1.5;"><g id="_4-Wind" serif:id="4-Wind"><path id="Whirlwind" d="M93.338,190.142l0,-76.122c3.729,-4.166 8.056,-7.336 13.05,-9.392l65.643,5.833c0.746,6.531 0.651,13.062 -0.079,19.594c0,0 -66.104,7.214 -66.256,7.592c-0.408,1.017 -13.031,-22.858 -12.358,-23.627c4.658,-4.669 9.025,-7.886 13.05,-9.392l-0.692,33.019l20.561,-2.392l0.217,-28.842l9.111,0.809l0,26.983l6.793,-0.762l0,-25.617l9.12,0.81l0,23.786" style="fill:none;stroke:#fff;stroke-width:4px;"/><path id="Border" d="M122.177,12.872c1.074,-1.848 3.05,-2.985 5.188,-2.985c2.137,0 4.114,1.137 5.188,2.985c20.109,34.606 92.797,159.696 112.994,194.453c1.079,1.856 1.083,4.147 0.013,6.007c-1.071,1.861 -3.054,3.008 -5.201,3.008c-40.306,0 -185.682,0 -225.989,0c-2.146,0 -4.129,-1.147 -5.2,-3.008c-1.071,-1.86 -1.066,-4.151 0.013,-6.007c20.197,-34.757 92.885,-159.847 112.994,-194.453Z" style="fill:none;stroke:#fff;stroke-width:7.89px;"/></g></svg>