<?xml version="1.0" encoding="UTF-8" standalone="no"?><!DOCTYPE svg PUBLIC "-//W3C//DTD SVG 1.1//EN" "http://www.w3.org/Graphics/SVG/1.1/DTD/svg11.dtd"><svg width="100%" height="100%" viewBox="0 0 255 221" version="1.1" xmlns="http://www.w3.org/2000/svg" xmlns:xlink="http://www.w3.org/1999/xlink" xml:space="preserve" xmlns:serif="http://www.serif.com/" style="fill-rule:evenodd;clip-rule:evenodd;stroke-linecap:round;stroke-linejoin:round;stroke-miterlimit:1.5;"><path id="_8-IceMelt" serif:id="8-IceMelt" d="M122.177,12.872c1.074,-1.848 3.05,-2.985 5.188,-2.985c2.137,0 4.114,1.137 5.188,2.985c20.109,34.606 92.797,159.696 112.994,194.453c1.079,1.856 1.083,4.147 0.013,6.007c-1.071,1.861 -3.054,3.008 -5.201,3.008c-40.306,0 -185.682,0 -225.989,0c-2.146,0 -4.129,-1.147 -5.2,-3.008c-1.071,-1.86 -1.066,-4.151 0.013,-6.007c20.197,-34.757 92.885,-159.847 112.994,-194.453Z" style="fill:none;stroke:#fff;stroke-width:7.89px;"/><clipPath id="_clip1"><path d="M122.177,12.872c1.074,-1.848 3.05,-2.985 5.188,-2.985c2.137,0 4.114,1.137 5.188,2.985c20.109,34.606 92.797,159.696 112.994,194.453c1.079,1.856 1.083,4.147 0.013,6.007c-1.071,1.861 -3.054,3.008 -5.201,3.008c-40.306,0 -185.682,0 -225.989,0c-2.146,0 -4.129,-1.147 -5.2,-3.008c-1.071,-1.86 -1.066,-4.151 0.013,-6.007c20.197,-34.757 92.885,-159.847 112.994,-194.453Z"/></clipPath><g clip-path="url(#_clip1)"><g id="Droplets"><path d="M108.009,154.481c-2.663,2.357 -4.154,5.184 -5.029,8.257c0.604,2.57 2.28,3.978 5.029,4.224c2.246,-0.027 3.878,-1.358 4.693,-4.425c-0.834,-2.959 -2.429,-5.633 -4.693,-8.056Z" style="fill:none;stroke:#fff;stroke-width:3.5px;"/><path d="M123.899,170.371c-2.663,2.358 -4.154,5.184 -5.028,8.257c0.603,2.571 2.279,3.979 5.028,4.224c2.246,-0.027 3.878,-1.358 4.694,-4.425c-0.834,-2.959 -2.429,-5.633 -4.694,-8.056Z" style="fill:none;stroke:#fff;stroke-width:3.5px;"/><path d="M142.74,155.084c-2.663,2.358 -4.154,5.184 -5.029,8.258c0.604,2.57 2.28,3.978 5.029,4.224c2.246,-0.028 3.878,-1.359 4.693,-4.426c-0.834,-2.959 -2.429,-5.633 -4.693,-8.056Z" style="fill:none;stroke:#fff;stroke-width:3.5px;"/><path d="M156.619,170.371c-2.663,2.358 -4.154,5.184 -5.029,8.257c0.604,2.571 2.28,3.979 5.029,4.224c2.245,-0.027 3.878,-1.358 4.693,-4.425c-0.834,-2.959 -2.429,-5.633 -4.693,-8.056Z" style="fill:none;stroke:#fff;stroke-width:3.5px;"/></g><g id="Ice"><path d="M90.758,106.66l76.504,0" style="fill:none;stroke:#fff;stroke-width:4.78px;stroke-miterlimit:1;"/><path d="M90.832,113.113c0.056,8.648 3.576,19.237 9.735,31.303c4.098,-6.818 7.461,-14.506 10.092,-21.568c4.063,5.439 8.013,11.001 11.1,13.754c3.247,-3.947 6.06,-8.327 8.33,-13.251c3.83,8.076 7.29,14.3 10.619,19.875c3.42,-6.198 6.193,-15.223 8.314,-21.921c3.432,13.291 7.483,28.724 12.29,40.265c3.975,-16.152 6.401,-32.304 7.202,-48.457l-77.682,0Z" style="fill:none;stroke:#fff;stroke-width:3px;"/></g></g></svg>