<?xml version="1.0" encoding="UTF-8" standalone="no"?><!DOCTYPE svg PUBLIC "-//W3C//DTD SVG 1.1//EN" "http://www.w3.org/Graphics/SVG/1.1/DTD/svg11.dtd"><svg width="100%" height="100%" viewBox="0 0 255 221" version="1.1" xmlns="http://www.w3.org/2000/svg" xmlns:xlink="http://www.w3.org/1999/xlink" xml:space="preserve" xmlns:serif="http://www.serif.com/" style="fill-rule:evenodd;clip-rule:evenodd;stroke-linecap:round;stroke-linejoin:round;stroke-miterlimit:1.5;"><path id="_12-UV" serif:id="12-UV" d="M122.177,12.872c1.074,-1.848 3.05,-2.985 5.188,-2.985c2.137,0 4.114,1.137 5.188,2.985c20.109,34.606 92.797,159.696 112.994,194.453c1.079,1.856 1.083,4.147 0.013,6.007c-1.071,1.861 -3.054,3.008 -5.201,3.008c-40.306,0 -185.682,0 -225.989,0c-2.146,0 -4.129,-1.147 -5.2,-3.008c-1.071,-1.86 -1.066,-4.151 0.013,-6.007c20.197,-34.757 92.885,-159.847 112.994,-194.453Z" style="fill:none;stroke:#fff;stroke-width:7.89px;"/><clipPath id="_clip1"><path d="M122.177,12.872c1.074,-1.848 3.05,-2.985 5.188,-2.985c2.137,0 4.114,1.137 5.188,2.985c20.109,34.606 92.797,159.696 112.994,194.453c1.079,1.856 1.083,4.147 0.013,6.007c-1.071,1.861 -3.054,3.008 -5.201,3.008c-40.306,0 -185.682,0 -225.989,0c-2.146,0 -4.129,-1.147 -5.2,-3.008c-1.071,-1.86 -1.066,-4.151 0.013,-6.007c20.197,-34.757 92.885,-159.847 112.994,-194.453Z"/></clipPath><g clip-path="url(#_clip1)"><text x="110.638px" y="188.25px" style="font-family:'Arial-BoldMT', 'Arial', sans-serif;font-weight:700;font-size:35.926px;fill:#fff;">UV</text><g id="UV-Rays"><g><circle cx="91.362" cy="108.482" r="2.316" style="fill:none;stroke:#fff;stroke-width:2px;"/><circle cx="91.362" cy="108.482" r="2.316" style="fill:#fff;"/><circle cx="95.079" cy="118.17" r="2.316" style="fill:none;stroke:#fff;stroke-width:2px;"/><circle cx="95.079" cy="118.17" r="2.316" style="fill:#fff;"/><circle cx="98.796" cy="127.553" r="2.316" style="fill:none;stroke:#fff;stroke-width:2px;"/><circle cx="98.796" cy="127.553" r="2.316" style="fill:#fff;"/><circle cx="102.414" cy="137.724" r="2.316" style="fill:none;stroke:#fff;stroke-width:2px;"/><circle cx="102.414" cy="137.724" r="2.316" style="fill:#fff;"/><circle cx="105.909" cy="146.958" r="2.316" style="fill:none;stroke:#fff;stroke-width:2px;"/><circle cx="105.909" cy="146.958" r="2.316" style="fill:#fff;"/></g><g><circle cx="110.503" cy="108.482" r="2.316" style="fill:none;stroke:#fff;stroke-width:2px;"/><circle cx="110.503" cy="108.482" r="2.316" style="fill:#fff;"/><circle cx="114.219" cy="118.17" r="2.316" style="fill:none;stroke:#fff;stroke-width:2px;"/><circle cx="114.219" cy="118.17" r="2.316" style="fill:#fff;"/><circle cx="117.936" cy="127.553" r="2.316" style="fill:none;stroke:#fff;stroke-width:2px;"/><circle cx="117.936" cy="127.553" r="2.316" style="fill:#fff;"/><circle cx="121.555" cy="137.724" r="2.316" style="fill:none;stroke:#fff;stroke-width:2px;"/><circle cx="121.555" cy="137.724" r="2.316" style="fill:#fff;"/><circle cx="125.049" cy="146.958" r="2.316" style="fill:none;stroke:#fff;stroke-width:2px;"/><circle cx="125.049" cy="146.958" r="2.316" style="fill:#fff;"/></g><g><circle cx="129.681" cy="108.482" r="2.316" style="fill:none;stroke:#fff;stroke-width:2px;"/><circle cx="129.681" cy="108.482" r="2.316" style="fill:#fff;"/><circle cx="133.397" cy="118.17" r="2.316" style="fill:none;stroke:#fff;stroke-width:2px;"/><circle cx="133.397" cy="118.17" r="2.316" style="fill:#fff;"/><circle cx="137.114" cy="127.553" r="2.316" style="fill:none;stroke:#fff;stroke-width:2px;"/><circle cx="137.114" cy="127.553" r="2.316" style="fill:#fff;"/><circle cx="140.733" cy="137.724" r="2.316" style="fill:none;stroke:#fff;stroke-width:2px;"/><circle cx="140.733" cy="137.724" r="2.316" style="fill:#fff;"/><circle cx="144.227" cy="146.958" r="2.316" style="fill:none;stroke:#fff;stroke-width:2px;"/><circle cx="144.227" cy="146.958" r="2.316" style="fill:#fff;"/></g><g><circle cx="148.859" cy="108.316" r="2.316" style="fill:none;stroke:#fff;stroke-width:2px;"/><circle cx="148.859" cy="108.316" r="2.316" style="fill:#fff;"/><circle cx="152.575" cy="118.004" r="2.316" style="fill:none;stroke:#fff;stroke-width:2px;"/><circle cx="152.575" cy="118.004" r="2.316" style="fill:#fff;"/><circle cx="156.292" cy="127.387" r="2.316" style="fill:none;stroke:#fff;stroke-width:2px;"/><circle cx="156.292" cy="127.387" r="2.316" style="fill:#fff;"/><circle cx="159.911" cy="137.557" r="2.316" style="fill:none;stroke:#fff;stroke-width:2px;"/><circle cx="159.911" cy="137.557" r="2.316" style="fill:#fff;"/><circle cx="163.405" cy="146.791" r="2.316" style="fill:none;stroke:#fff;stroke-width:2px;"/><circle cx="163.405" cy="146.791" r="2.316" style="fill:#fff;"/></g></g></g></svg>